<svg id="svg" version="1.1" width="400" height="400" xmlns="http://www.w3.org/2000/svg" xmlns:xlink="http://www.w3.org/1999/xlink" style="display: block;"><g id="svgg"><path id="path0" d="M66.471 1.672 C 64.682 3.461,65.118 11.159,67.047 11.833 C 67.571 12.017,68.000 12.804,68.000 13.583 C 68.000 14.363,68.417 15.000,68.927 15.000 C 69.436 15.000,69.999 15.636,70.177 16.412 C 70.535 17.978,78.413 27.115,87.250 36.215 C 90.412 39.472,93.000 42.363,93.000 42.640 C 93.000 42.916,93.563 43.733,94.250 44.455 C 94.938 45.177,98.425 49.013,102.000 52.980 C 105.575 56.947,109.963 61.740,111.750 63.630 C 115.647 67.751,115.862 69.746,112.500 70.589 C 111.125 70.934,110.000 71.582,110.000 72.029 C 110.000 72.476,108.650 73.138,107.000 73.500 C 105.350 73.862,104.000 74.573,104.000 75.079 C 104.000 75.586,103.477 76.000,102.838 76.000 C 101.490 76.000,91.662 82.090,91.167 83.232 C 90.983 83.654,90.182 84.000,89.385 84.000 C 88.589 84.000,87.678 84.675,87.362 85.500 C 87.045 86.325,86.257 87.000,85.610 87.000 C 84.221 87.000,79.935 90.214,75.273 94.750 C 73.436 96.537,71.554 98.000,71.090 98.000 C 69.829 98.000,51.007 117.033,50.958 118.358 C 50.934 118.986,49.584 120.604,47.958 121.953 C 46.331 123.302,45.000 124.785,45.000 125.249 C 45.000 125.712,43.875 127.216,42.500 128.591 C 41.125 129.966,40.000 131.697,40.000 132.438 C 40.000 133.180,39.325 134.045,38.500 134.362 C 37.675 134.678,37.000 135.626,37.000 136.469 C 37.000 137.311,36.559 138.000,36.019 138.000 C 35.480 138.000,34.756 139.125,34.411 140.500 C 34.066 141.875,33.453 143.000,33.049 143.000 C 32.645 143.000,31.457 144.681,30.407 146.735 C 29.358 148.789,27.937 151.071,27.250 151.806 C 26.562 152.541,26.000 153.786,26.000 154.571 C 26.000 155.357,25.550 156.000,25.000 156.000 C 24.450 156.000,23.985 156.563,23.966 157.250 C 23.947 157.938,23.063 160.300,22.000 162.500 C 20.937 164.700,20.053 167.287,20.034 168.250 C 20.015 169.213,19.656 170.000,19.236 170.000 C 18.193 170.000,15.000 177.542,15.000 180.007 C 15.000 181.103,14.601 182.000,14.114 182.000 C 13.626 182.000,12.925 184.015,12.556 186.477 C 12.187 188.939,11.505 191.188,11.041 191.475 C 10.577 191.762,9.883 194.697,9.500 197.998 C 9.117 201.299,8.443 204.000,8.003 204.000 C 7.562 204.000,6.952 205.912,6.648 208.250 C 6.343 210.588,5.661 215.200,5.131 218.500 C 3.884 226.278,3.884 267.722,5.131 275.500 C 5.661 278.800,6.343 283.413,6.648 285.750 C 6.952 288.087,7.562 290.000,8.003 290.000 C 8.443 290.000,9.117 292.700,9.500 296.000 C 9.883 299.300,10.551 302.000,10.985 302.000 C 11.418 302.000,12.093 304.137,12.484 306.750 C 12.876 309.363,13.491 311.725,13.852 312.000 C 14.213 312.275,15.367 315.087,16.417 318.250 C 17.466 321.413,18.653 324.000,19.054 324.000 C 19.455 324.000,20.066 325.237,20.411 326.750 C 20.992 329.293,26.862 341.862,28.000 343.000 C 28.275 343.275,29.366 345.075,30.425 347.000 C 31.483 348.925,32.608 350.725,32.925 351.000 C 33.806 351.766,35.893 355.242,36.978 357.750 C 37.513 358.988,38.363 360.000,38.867 360.000 C 39.371 360.000,40.058 361.095,40.394 362.433 C 40.730 363.772,41.904 365.152,43.002 365.501 C 44.101 365.849,45.000 366.764,45.000 367.533 C 45.000 368.302,46.350 370.312,48.000 372.000 C 49.650 373.688,51.000 375.393,51.000 375.789 C 51.000 377.169,70.092 396.000,71.491 396.000 C 71.771 396.000,72.900 396.900,74.000 398.000 C 77.152 401.152,322.848 401.152,326.000 398.000 C 327.100 396.900,328.229 396.000,328.509 396.000 C 329.717 396.000,341.068 385.046,346.000 379.120 C 347.375 377.468,349.962 374.483,351.750 372.487 C 353.537 370.491,355.000 368.245,355.000 367.496 C 355.000 366.747,355.899 365.849,356.998 365.501 C 358.096 365.152,359.262 363.804,359.588 362.506 C 359.914 361.207,360.815 359.901,361.590 359.604 C 362.366 359.306,363.000 358.197,363.000 357.138 C 363.000 356.080,363.675 354.955,364.500 354.638 C 365.325 354.322,366.000 353.374,366.000 352.531 C 366.000 351.689,366.348 351.000,366.773 351.000 C 367.198 351.000,368.431 349.313,369.513 347.250 C 370.595 345.188,371.710 343.275,371.990 343.000 C 373.301 341.714,380.000 326.742,380.000 325.099 C 380.000 324.494,380.377 324.000,380.838 324.000 C 381.298 324.000,382.534 321.412,383.583 318.250 C 384.633 315.087,385.787 312.275,386.148 312.000 C 386.509 311.725,387.124 309.363,387.516 306.750 C 387.907 304.138,388.582 302.000,389.015 302.000 C 389.449 302.000,390.117 299.300,390.500 296.000 C 390.883 292.700,391.557 290.000,391.997 290.000 C 392.438 290.000,393.048 288.088,393.352 285.750 C 393.657 283.413,394.339 278.800,394.869 275.500 C 396.116 267.722,396.116 226.278,394.869 218.500 C 394.339 215.200,393.657 210.588,393.352 208.250 C 393.048 205.913,392.438 204.000,391.997 204.000 C 391.557 204.000,390.883 201.299,390.500 197.998 C 390.117 194.697,389.423 191.762,388.959 191.475 C 388.495 191.188,387.813 188.939,387.444 186.477 C 387.075 184.015,386.374 182.000,385.886 182.000 C 385.399 182.000,385.000 181.056,385.000 179.901 C 385.000 177.783,382.179 170.925,380.928 170.000 C 380.556 169.725,379.934 168.037,379.546 166.250 C 379.158 164.463,378.427 163.000,377.921 163.000 C 377.414 163.000,377.000 162.302,377.000 161.448 C 377.000 160.064,373.277 152.287,372.000 151.003 C 371.725 150.726,370.642 148.813,369.593 146.750 C 368.543 144.688,367.355 143.000,366.951 143.000 C 366.547 143.000,365.934 141.875,365.589 140.500 C 365.244 139.125,364.520 138.000,363.981 138.000 C 363.441 138.000,363.000 137.311,363.000 136.469 C 363.000 135.626,362.325 134.678,361.500 134.362 C 360.675 134.045,360.000 133.180,360.000 132.438 C 360.000 131.697,358.875 129.966,357.500 128.591 C 356.125 127.216,355.000 125.778,355.000 125.396 C 355.000 125.015,353.425 123.172,351.500 121.303 C 349.575 119.433,348.000 117.516,348.000 117.042 C 348.000 115.976,331.074 99.000,330.011 99.000 C 329.588 99.000,327.467 97.312,325.298 95.250 C 319.866 90.085,315.787 87.000,314.390 87.000 C 313.743 87.000,312.955 86.325,312.638 85.500 C 312.322 84.675,311.411 84.000,310.615 84.000 C 309.818 84.000,309.017 83.654,308.833 83.232 C 308.338 82.090,298.510 76.000,297.162 76.000 C 296.523 76.000,296.000 75.599,296.000 75.108 C 296.000 74.618,294.868 73.933,293.485 73.586 C 285.882 71.677,285.287 67.085,291.750 60.189 C 296.044 55.608,300.128 51.011,306.834 43.214 C 308.118 41.721,311.718 37.652,314.834 34.171 C 320.534 27.805,325.468 22.217,327.709 19.589 C 328.375 18.809,329.211 17.008,329.568 15.586 C 329.925 14.164,330.618 13.000,331.108 13.000 C 332.869 13.000,332.115 2.808,330.250 1.392 C 327.257 -0.880,68.749 -0.606,66.471 1.672 M293.000 24.535 C 293.000 26.376,290.340 30.738,287.533 33.500 C 286.415 34.600,283.925 37.509,282.000 39.964 C 280.075 42.418,277.481 45.568,276.236 46.964 C 274.990 48.359,271.966 51.750,269.514 54.500 C 267.062 57.250,265.044 60.025,265.028 60.667 C 265.013 61.308,264.472 62.009,263.828 62.224 C 258.955 63.848,262.367 77.728,268.077 79.512 C 269.410 79.929,270.725 80.546,271.000 80.885 C 271.489 81.487,274.018 82.953,280.954 86.656 C 282.854 87.670,285.024 89.063,285.776 89.750 C 286.528 90.438,287.556 91.000,288.060 91.000 C 288.984 91.000,291.146 92.611,295.775 96.750 C 297.160 97.987,298.674 99.000,299.141 99.000 C 300.421 99.000,322.134 121.089,325.000 125.307 C 326.375 127.331,327.837 128.989,328.250 128.993 C 328.663 128.997,329.000 129.498,329.000 130.106 C 329.000 130.714,330.350 132.917,332.000 135.000 C 333.650 137.083,335.000 139.286,335.000 139.894 C 335.000 140.502,335.401 141.000,335.892 141.000 C 336.382 141.000,337.066 142.125,337.411 143.500 C 337.756 144.875,338.444 146.000,338.940 146.000 C 339.435 146.000,340.138 147.350,340.500 149.000 C 340.862 150.650,341.573 152.000,342.079 152.000 C 342.586 152.000,343.000 152.675,343.000 153.500 C 343.000 154.325,343.450 155.000,344.000 155.000 C 344.550 155.000,345.000 155.734,345.000 156.632 C 345.000 158.177,348.641 164.928,350.053 166.000 C 350.415 166.275,351.022 168.188,351.401 170.250 C 351.780 172.313,352.484 174.000,352.966 174.000 C 353.447 174.000,354.138 175.350,354.500 177.000 C 354.862 178.650,355.573 180.000,356.079 180.000 C 356.586 180.000,357.000 181.125,357.000 182.500 C 357.000 183.875,357.430 185.000,357.955 185.000 C 358.480 185.000,359.213 186.687,359.585 188.750 C 359.957 190.813,360.610 192.950,361.037 193.500 C 361.464 194.050,362.131 196.637,362.520 199.250 C 362.909 201.863,363.590 204.000,364.034 204.000 C 364.478 204.000,365.155 206.931,365.538 210.514 C 365.922 214.097,366.633 217.273,367.118 217.573 C 367.603 217.873,368.000 220.315,368.000 223.000 C 368.000 225.685,368.450 228.160,369.000 228.500 C 370.346 229.332,370.346 264.668,369.000 265.500 C 368.450 265.840,368.000 268.341,368.000 271.059 C 368.000 273.777,367.608 276.000,367.129 276.000 C 366.650 276.000,365.948 279.150,365.569 283.000 C 365.189 286.850,364.507 290.000,364.053 290.000 C 363.599 290.000,362.923 292.025,362.552 294.500 C 362.181 296.975,361.455 299.000,360.939 299.000 C 360.422 299.000,360.000 299.944,360.000 301.099 C 360.000 303.362,359.074 305.609,352.366 319.621 C 349.965 324.637,348.000 329.250,348.000 329.871 C 348.000 330.492,347.550 331.000,347.000 331.000 C 346.450 331.000,346.000 331.613,346.000 332.362 C 346.000 333.501,343.241 337.606,339.134 342.577 C 338.645 343.169,337.934 344.632,337.555 345.827 C 337.176 347.022,336.446 348.000,335.933 348.000 C 335.420 348.000,335.000 348.653,335.000 349.450 C 335.000 350.248,334.427 351.260,333.726 351.700 C 333.025 352.140,331.675 353.723,330.725 355.217 C 329.775 356.711,327.760 359.233,326.249 360.820 C 324.737 362.407,322.825 364.733,322.000 365.987 C 321.175 367.242,319.917 368.770,319.205 369.384 C 318.492 369.998,316.422 371.963,314.604 373.750 L 311.298 377.000 200.753 377.000 L 90.209 377.000 83.725 370.611 C 80.159 367.097,77.074 363.791,76.870 363.263 C 76.481 362.254,71.069 355.478,67.250 351.218 C 66.012 349.838,65.000 348.099,65.000 347.354 C 65.000 346.609,64.575 346.000,64.055 346.000 C 63.121 346.000,60.656 342.152,59.408 338.750 C 59.055 337.788,58.369 337.000,57.883 337.000 C 57.398 337.000,57.000 336.325,57.000 335.500 C 57.000 334.675,56.559 334.000,56.019 334.000 C 55.480 334.000,54.756 332.875,54.411 331.500 C 54.066 330.125,53.418 329.000,52.971 329.000 C 52.524 329.000,51.862 327.650,51.500 326.000 C 51.138 324.350,50.427 323.000,49.921 323.000 C 49.414 323.000,49.000 322.506,49.000 321.901 C 49.000 320.729,46.806 315.327,44.439 310.669 C 43.647 309.112,43.000 306.974,43.000 305.919 C 43.000 304.864,42.601 304.000,42.114 304.000 C 41.626 304.000,40.923 301.975,40.552 299.500 C 40.181 297.025,39.499 295.000,39.037 295.000 C 38.575 295.000,37.873 292.187,37.478 288.750 C 37.083 285.313,36.398 282.270,35.956 281.988 C 32.391 279.717,32.391 220.283,35.956 218.012 C 36.398 217.730,37.083 214.688,37.478 211.250 C 37.873 207.812,38.550 205.000,38.983 205.000 C 39.416 205.000,40.079 202.525,40.457 199.500 C 40.835 196.475,41.562 194.000,42.072 194.000 C 42.582 194.000,43.000 193.127,43.000 192.059 C 43.000 190.991,43.399 189.871,43.887 189.570 C 44.374 189.269,45.070 187.442,45.432 185.511 C 45.794 183.580,46.481 182.000,46.957 182.000 C 47.434 182.000,48.128 180.200,48.500 178.000 C 48.872 175.800,49.550 174.000,50.008 174.000 C 50.466 174.000,51.138 172.650,51.500 171.000 C 51.862 169.350,52.537 168.000,53.000 168.000 C 53.463 168.000,54.138 166.650,54.500 165.000 C 54.862 163.350,55.467 162.000,55.844 162.000 C 56.560 162.000,60.000 154.635,60.000 153.100 C 60.000 152.613,60.675 151.955,61.500 151.638 C 62.325 151.322,63.000 150.374,63.000 149.531 C 63.000 148.689,63.414 148.000,63.921 148.000 C 64.427 148.000,65.148 146.604,65.522 144.898 C 65.897 143.192,66.945 141.010,67.852 140.048 C 71.084 136.621,72.807 134.183,73.466 132.107 C 73.834 130.948,74.554 130.000,75.067 130.000 C 75.580 130.000,76.000 129.347,76.000 128.550 C 76.000 127.752,76.586 126.740,77.302 126.300 C 78.018 125.860,80.155 123.509,82.052 121.076 C 85.920 116.113,100.039 102.000,101.136 102.000 C 101.527 102.000,103.196 100.650,104.846 99.000 C 106.496 97.350,108.154 96.000,108.529 96.000 C 108.905 96.000,110.917 94.650,113.000 93.000 C 115.083 91.350,117.286 90.000,117.894 90.000 C 118.502 90.000,119.000 89.559,119.000 89.019 C 119.000 88.480,120.125 87.756,121.500 87.411 C 122.875 87.066,124.000 86.382,124.000 85.892 C 124.000 85.401,124.571 85.000,125.268 85.000 C 125.965 85.000,128.157 83.898,130.139 82.551 C 132.121 81.205,135.016 79.783,136.573 79.392 C 145.540 77.142,147.428 67.339,140.250 60.301 C 139.012 59.088,138.000 57.674,138.000 57.159 C 138.000 56.644,136.313 54.325,134.250 52.005 C 127.835 44.790,126.547 43.247,125.000 40.923 C 124.175 39.684,121.857 36.989,119.849 34.934 C 117.841 32.879,115.911 30.295,115.561 29.191 C 115.210 28.088,114.266 26.932,113.462 26.624 C 112.658 26.315,112.000 25.374,112.000 24.531 C 112.000 23.167,121.898 23.000,202.500 23.000 C 283.200 23.000,293.000 23.166,293.000 24.535 M199.000 72.000 C 199.000 72.550,198.132 73.000,197.071 73.000 C 193.509 73.000,187.882 79.435,187.276 84.202 C 186.976 86.566,186.286 89.063,185.743 89.750 C 185.095 90.570,185.094 91.430,185.739 92.250 C 186.280 92.938,186.986 95.217,187.309 97.315 C 189.133 109.179,208.902 114.844,218.956 106.384 C 228.825 98.079,227.801 79.765,217.166 74.362 C 215.150 73.338,213.350 72.162,213.167 71.750 C 212.658 70.605,199.000 70.846,199.000 72.000 M138.500 106.000 C 138.160 106.550,137.046 107.000,136.024 107.000 C 135.003 107.000,134.017 107.338,133.833 107.750 C 133.650 108.162,130.800 110.296,127.500 112.492 C 124.200 114.687,120.912 117.275,120.193 118.242 C 119.475 119.209,118.259 120.000,117.493 120.000 C 116.727 120.000,115.740 120.596,115.300 121.324 C 114.860 122.052,112.986 123.740,111.136 125.074 C 106.189 128.642,96.421 138.478,94.360 141.968 C 93.375 143.636,92.291 145.000,91.951 145.000 C 91.611 145.000,89.576 147.588,87.430 150.750 C 85.283 153.912,83.296 156.725,83.014 157.000 C 82.012 157.975,79.933 161.525,79.354 163.250 C 79.031 164.213,78.418 165.000,77.992 165.000 C 77.566 165.000,76.934 166.125,76.589 167.500 C 76.244 168.875,75.556 170.000,75.060 170.000 C 74.565 170.000,73.862 171.350,73.500 173.000 C 73.138 174.650,72.463 176.000,72.000 176.000 C 71.537 176.000,70.864 177.345,70.503 178.989 C 70.142 180.632,69.431 182.234,68.923 182.548 C 68.415 182.861,68.000 183.991,68.000 185.059 C 68.000 186.127,67.578 187.000,67.061 187.000 C 66.545 187.000,65.819 189.025,65.448 191.500 C 65.077 193.975,64.416 196.000,63.980 196.000 C 63.544 196.000,62.870 198.363,62.482 201.250 C 62.094 204.137,61.384 206.987,60.904 207.583 C 60.424 208.179,59.732 213.242,59.366 218.833 C 58.999 224.425,58.317 229.000,57.850 229.000 C 56.741 229.000,56.739 256.720,57.847 257.406 C 58.313 257.694,58.996 262.520,59.363 268.131 C 59.731 273.743,60.424 278.821,60.904 279.417 C 61.384 280.013,62.094 282.863,62.482 285.750 C 62.870 288.637,63.538 291.000,63.966 291.000 C 64.394 291.000,65.017 292.704,65.350 294.786 C 65.683 296.869,67.088 300.806,68.473 303.536 C 69.858 306.266,70.994 309.288,70.996 310.250 C 70.998 311.212,71.414 312.000,71.921 312.000 C 72.427 312.000,73.138 313.350,73.500 315.000 C 73.862 316.650,74.524 318.000,74.971 318.000 C 75.418 318.000,76.066 319.125,76.411 320.500 C 76.756 321.875,77.480 323.000,78.019 323.000 C 78.559 323.000,79.000 323.609,79.000 324.354 C 79.000 325.099,80.125 326.922,81.500 328.405 C 82.875 329.889,84.000 331.769,84.000 332.583 C 84.000 333.397,84.675 334.322,85.500 334.638 C 86.325 334.955,87.000 335.775,87.000 336.461 C 87.000 338.020,90.990 342.389,93.775 343.879 C 101.380 347.950,111.996 341.847,111.999 333.404 C 112.000 329.194,109.576 323.000,107.927 323.000 C 107.417 323.000,107.000 322.325,107.000 321.500 C 107.000 320.675,106.580 320.000,106.067 320.000 C 105.554 320.000,104.819 318.988,104.433 317.750 C 104.046 316.512,103.454 315.275,103.115 315.000 C 101.792 313.925,98.000 308.024,98.000 307.040 C 98.000 306.468,97.550 306.000,97.000 306.000 C 96.450 306.000,96.000 305.361,96.000 304.581 C 96.000 303.099,92.982 296.870,91.842 295.998 C 91.480 295.722,90.867 293.809,90.480 291.748 C 90.094 289.686,89.405 288.000,88.950 288.000 C 88.495 288.000,87.813 285.863,87.435 283.250 C 87.057 280.637,86.398 278.050,85.970 277.500 C 85.543 276.950,84.869 273.800,84.473 270.500 C 84.077 267.200,83.339 263.980,82.833 263.345 C 80.567 260.501,83.587 210.000,86.023 210.000 C 86.457 210.000,87.122 207.750,87.500 205.000 C 87.878 202.250,88.595 200.000,89.094 200.000 C 89.592 200.000,90.000 199.226,90.000 198.279 C 90.000 196.341,99.042 177.683,100.232 177.167 C 100.654 176.983,101.000 176.403,101.000 175.876 C 101.000 174.755,105.155 168.653,106.250 168.167 C 106.662 167.983,107.000 167.196,107.000 166.417 C 107.000 165.637,107.338 164.997,107.750 164.993 C 108.162 164.989,109.625 163.302,111.000 161.243 C 113.468 157.548,130.460 140.000,131.570 140.000 C 131.885 140.000,132.731 139.438,133.449 138.750 C 134.167 138.063,135.765 136.825,137.000 136.000 C 138.235 135.175,139.833 133.938,140.551 133.250 C 141.269 132.563,142.339 132.000,142.929 132.000 C 143.518 132.000,144.000 131.580,144.000 131.067 C 144.000 130.554,144.995 129.819,146.211 129.433 C 156.406 126.197,157.648 111.164,148.141 106.076 C 145.611 104.721,139.321 104.672,138.500 106.000 M230.990 152.625 C 220.772 157.393,220.488 180.000,230.646 180.000 C 231.391 180.000,232.000 180.450,232.000 181.000 C 232.000 182.633,241.417 182.137,245.096 180.309 C 249.691 178.027,250.917 176.666,251.643 173.037 C 251.981 171.344,252.650 169.716,253.129 169.420 C 254.340 168.672,254.226 163.000,253.000 163.000 C 252.450 163.000,252.000 162.078,252.000 160.950 C 252.000 154.073,238.960 148.905,230.990 152.625 M164.500 180.928 C 157.345 184.298,151.020 191.247,151.007 195.750 C 151.003 196.988,150.550 198.000,150.000 198.000 C 148.771 198.000,148.649 210.665,149.871 211.420 C 150.350 211.716,151.035 213.424,151.393 215.215 C 152.289 219.696,161.679 228.662,166.405 229.548 C 172.072 230.611,187.272 229.684,187.751 228.247 C 187.980 227.561,188.783 227.000,189.535 227.000 C 191.458 227.000,197.934 220.110,198.635 217.320 C 198.955 216.044,199.618 215.000,200.108 215.000 C 202.204 215.000,201.086 197.266,198.709 192.803 C 195.855 187.444,192.948 184.000,191.278 184.000 C 190.575 184.000,190.000 183.656,190.000 183.236 C 190.000 179.342,171.434 177.662,164.500 180.928 M198.000 251.973 C 196.075 252.455,192.475 253.359,190.000 253.982 C 187.525 254.605,185.072 255.539,184.550 256.057 C 184.028 256.576,182.790 257.000,181.800 257.000 C 180.810 257.000,180.000 257.400,180.000 257.889 C 180.000 258.377,178.425 259.073,176.500 259.434 C 174.575 259.795,173.000 260.520,173.000 261.045 C 173.000 261.570,172.357 262.000,171.571 262.000 C 170.786 262.000,169.527 262.616,168.775 263.368 C 168.022 264.121,166.415 265.051,165.203 265.435 C 163.992 265.820,163.000 266.554,163.000 267.067 C 163.000 267.580,162.325 268.000,161.500 268.000 C 160.675 268.000,160.000 268.464,160.000 269.031 C 160.000 269.599,159.213 270.363,158.250 270.731 C 153.378 272.591,138.879 288.000,142.000 288.000 C 142.550 288.000,143.000 288.675,143.000 289.500 C 143.000 290.325,143.338 291.003,143.750 291.007 C 144.162 291.011,145.618 292.698,146.985 294.757 C 150.869 300.608,164.271 313.000,166.715 313.000 C 167.422 313.000,168.000 313.420,168.000 313.933 C 168.000 314.446,169.012 315.181,170.250 315.567 C 171.488 315.954,172.725 316.557,173.000 316.909 C 174.135 318.360,184.283 322.961,187.758 323.600 C 189.816 323.979,191.821 324.786,192.214 325.394 C 193.292 327.064,233.192 326.925,233.750 325.250 C 233.979 324.563,235.299 324.000,236.682 324.000 C 238.066 324.000,240.841 323.281,242.849 322.403 C 252.657 318.112,253.978 317.454,253.989 316.858 C 253.995 316.506,255.125 315.934,256.500 315.589 C 257.875 315.244,259.000 314.520,259.000 313.981 C 259.000 313.441,259.468 313.000,260.040 313.000 C 261.439 313.000,267.010 309.037,269.530 306.250 C 270.648 305.012,271.921 304.000,272.359 304.000 C 272.796 304.000,274.519 302.635,276.186 300.967 C 279.879 297.274,281.585 297.527,287.331 302.618 C 288.025 303.233,289.585 304.051,290.797 304.435 C 292.008 304.820,293.000 305.554,293.000 306.067 C 293.000 306.580,293.675 307.000,294.500 307.000 C 295.325 307.000,296.000 307.450,296.000 308.000 C 296.000 308.550,296.643 309.000,297.429 309.000 C 298.214 309.000,299.473 309.616,300.225 310.368 C 300.978 311.121,302.585 312.051,303.797 312.435 C 305.008 312.820,306.000 313.554,306.000 314.067 C 306.000 314.580,308.025 315.000,310.500 315.000 L 315.000 315.000 315.000 288.700 C 315.000 269.578,314.672 262.072,313.800 261.200 C 310.801 258.201,303.875 261.016,295.225 268.750 C 293.840 269.988,292.099 271.000,291.354 271.000 C 290.609 271.000,290.000 271.420,290.000 271.933 C 290.000 272.446,289.212 273.116,288.250 273.422 C 287.288 273.728,285.267 275.122,283.761 276.519 C 281.149 278.943,276.024 278.030,275.993 275.135 C 275.989 274.786,274.302 273.375,272.243 272.000 C 270.184 270.625,267.742 268.825,266.816 268.000 C 265.890 267.175,262.965 265.375,260.316 264.000 C 257.667 262.625,255.270 261.198,254.990 260.829 C 254.709 260.460,253.247 259.849,251.740 259.471 C 250.233 259.093,249.000 258.382,249.000 257.892 C 249.000 257.401,248.127 257.000,247.059 257.000 C 245.991 257.000,244.864 256.589,244.554 256.087 C 244.243 255.585,242.079 254.855,239.745 254.465 C 237.410 254.074,235.211 253.299,234.857 252.741 C 234.032 251.442,202.726 250.789,198.000 251.973 " stroke="none" fill="#000000" fill-rule="evenodd"></path></g></svg>